<?xml version="1.0" encoding="UTF-8" standalone="no"?>
<!-- Created with Inkscape (http://www.inkscape.org/) -->

<svg
   width="72mm"
   height="72mm"
   viewBox="0 0 72 72"
   version="1.1"
   id="svg1"
   xmlns:xlink="http://www.w3.org/1999/xlink"
   xmlns="http://www.w3.org/2000/svg"
   xmlns:svg="http://www.w3.org/2000/svg">
  <defs
     id="defs1">
    <linearGradient
       id="linearGradient1">
      <stop
         style="stop-color:#030303;stop-opacity:1;"
         offset="0"
         id="stop1" />
      <stop
         style="stop-color:#181818;stop-opacity:1;"
         offset="1"
         id="stop2" />
    </linearGradient>
    <radialGradient
       xlink:href="#linearGradient1"
       id="radialGradient2"
       cx="36"
       cy="36"
       fx="36"
       fy="36"
       r="36"
       gradientUnits="userSpaceOnUse" />
  </defs>
  <g
     id="layer1">
    <rect
       style="fill:url(#radialGradient2);stroke:#888888;stroke-width:0.5;stroke-dasharray:none;stroke-opacity:1"
       id="rect1"
       width="72"
       height="72"
       x="1.7763568e-15"
       y="5.3290705e-15"
       rx="15"
       ry="15" />
    <path
       d="m 24.29707,47.556401 q -3.432929,0 -5.574261,-1.12165 -2.107343,-1.15564 -3.059046,-3.161014 Q 14.71206,41.234373 14.71206,38.54921 v -1.053671 h 3.874791 V 38.5832 q 0,1.835427 0.475852,3.059046 0.509841,1.189628 1.733459,1.801438 1.257608,0.577819 3.500908,0.577819 2.243301,0 3.466919,-0.577819 1.257608,-0.57782 1.767449,-1.73346 0.54383,-1.189629 0.54383,-2.957077 V 24.44361 h 3.840802 v 14.275547 q 0,2.617184 -0.951703,4.622558 -0.951703,1.971386 -3.093035,3.093036 -2.107343,1.12165 -5.574262,1.12165 z M 42.044866,47.216507 H 38.374011 V 24.44361 h 3.670855 z M 55.98052,38.073359 H 39.495661 V 34.810376 H 55.98052 Z m 0.509841,-10.332778 h -16.9947 V 24.44361 h 16.9947 z"
       id="text2"
       style="font-weight:500;font-size:33.9894px;font-family:'Clash Display Variable';-inkscape-font-specification:'Clash Display Variable Medium';text-align:center;letter-spacing:1.19494px;text-anchor:middle;fill:#f1efe9;stroke-width:1.50544"
       aria-label="JF" />
  </g>
</svg>
